# xmcd
#
# Track frame offsets:
#	150
#	15740
#	30809
#	42050
#	53085
#	69071
#	82796
#	102832
#	126905
#	147007
#	162751
#	179954
#	193260
#	210235
#	227973
#	244058
#	260314
#	274786
#
# Disc length: 3893 seconds
#
# Revision: 1
# Processed by: cddbd v1.5.2PL0 Copyright (c) Steve Scherf et al.
# Submitted via: audiograbber 1.82.02
#
DISCID=e80f3312
DTITLE=Various Artist - Rural Aid Appeal 2006 Vol 34
DYEAR=2006
DGENRE=Country
TTITLE0=Jimmy Barnes - It Will Be Alright With Me
TTITLE1=Graeme Connors - Hard Decisions
TTITLE2=Catherine Britt - Hot Doggin'
TTITLE3=Camille Tenahu - Without You
TTITLE4=James Blundell - Greylands
TTITLE5=Peter Denahy - The Block Who Serves The Beer
TTITLE6=Felicity Urquhart - On And On
TTITLE7=Topp Twins - Tamworth
TTITLE8=Darren Colston - Riverbend Jack
TTITLE9=Colin Fox - Working In The Cane Feilds
TTITLE10=Julie Perandes - Me And Moonlight
TTITLE11=Kelly Black - Running Away From Me
TTITLE12=Luella &The Blue Heller Band - How To Fly
TTITLE13=Michael  O'rourke - The Hat
TTITLE14=Rose Carleo - Freedom
TTITLE15=Brad Lee - 2000 L B Of Music
TTITLE16=Simply Bushed - What Kinda Day
TTITLE17=Yeehaa Boys - Can Ya Feel It
EXTD=
EXTT0=
EXTT1=
EXTT2=
EXTT3=
EXTT4=
EXTT5=
EXTT6=
EXTT7=
EXTT8=
EXTT9=
EXTT10=
EXTT11=
EXTT12=
EXTT13=
EXTT14=
EXTT15=
EXTT16=
EXTT17=
PLAYORDER=
